<?xml version="1.0" encoding="UTF-8" standalone="no"?>
<!-- Created with Inkscape (http://www.inkscape.org/) -->

<svg
   width="250mm"
   height="290mm"
   viewBox="0 0 250 290"
   version="1.1"
   id="svg5"
   xml:space="preserve"
   inkscape:version="1.3 (0e150ed6c4, 2023-07-21)"
   sodipodi:docname="BMAC_Generic.svg"
   inkscape:export-filename="BMAC_Generic.png"
   inkscape:export-xdpi="96"
   inkscape:export-ydpi="96"
   xmlns:inkscape="http://www.inkscape.org/namespaces/inkscape"
   xmlns:sodipodi="http://sodipodi.sourceforge.net/DTD/sodipodi-0.dtd"
   xmlns="http://www.w3.org/2000/svg"
   xmlns:svg="http://www.w3.org/2000/svg"><sodipodi:namedview
     id="namedview7"
     pagecolor="#ffffff"
     bordercolor="#666666"
     borderopacity="1.0"
     inkscape:showpageshadow="2"
     inkscape:pageopacity="0.0"
     inkscape:pagecheckerboard="0"
     inkscape:deskcolor="#d1d1d1"
     inkscape:document-units="mm"
     showgrid="false"
     showguides="true"
     inkscape:lockguides="false"
     inkscape:zoom="0.64693624"
     inkscape:cx="1105.9823"
     inkscape:cy="803.01577"
     inkscape:window-width="2560"
     inkscape:window-height="1377"
     inkscape:window-x="-8"
     inkscape:window-y="-8"
     inkscape:window-maximized="1"
     inkscape:current-layer="layer1"><sodipodi:guide
       position="0,290"
       orientation="0,944.88189"
       id="guide835"
       inkscape:locked="false" /><sodipodi:guide
       position="250,290"
       orientation="1096.063,0"
       id="guide837"
       inkscape:locked="false" /><sodipodi:guide
       position="250,0"
       orientation="0,-944.88189"
       id="guide839"
       inkscape:locked="false" /><sodipodi:guide
       position="0,0"
       orientation="-1096.063,0"
       id="guide841"
       inkscape:locked="false" /><sodipodi:guide
       position="125,143.51824"
       orientation="0,-1"
       id="guide906"
       inkscape:locked="false" /><sodipodi:guide
       position="125,118.02295"
       orientation="1,0"
       id="guide908"
       inkscape:locked="false" /><sodipodi:guide
       position="30.654333,245.46446"
       orientation="1,0"
       id="guide1111"
       inkscape:locked="false" /><sodipodi:guide
       position="218.05063,200.35054"
       orientation="1,0"
       id="guide1"
       inkscape:locked="false" /></sodipodi:namedview><defs
     id="defs2"><rect
       x="1221.7889"
       y="482.22712"
       width="78.957562"
       height="113.92954"
       id="rect1003" /></defs><g
     inkscape:label="Layer 1"
     inkscape:groupmode="layer"
     id="layer1"><path
       d="m 195.88157,260.0867 -71.05306,-71.604 q -6.33419,2.20334 -12.66839,3.58021 -6.33421,1.37605 -12.943831,1.37605 -26.736603,0 -45.452476,-18.6355 -18.715603,-18.63508 -18.715603,-45.25725 0,-8.5373 2.246718,-16.63078 2.246697,-8.09372 6.290662,-15.315579 L 83.518529,137.53288 108.85532,113.84847 67.820749,72.813795 q 7.136981,-4.174345 15.135122,-6.493634 7.998434,-2.31908 16.260418,-2.31908 27.310601,0 46.427731,19.117424 19.11741,19.117225 19.11741,46.427705 0,6.60959 -1.37709,12.94376 -1.37708,6.33417 -3.58019,12.66855 l 71.32846,71.05295 q 3.0294,3.01752 3.0294,7.29199 0,4.2749 -3.0294,7.30427 l -20.93037,19.27793 q -2.94566,3.02938 -7.11851,3.02938 -4.17287,0 -7.20224,-3.02938 z m 7.71117,-15.69772 11.01599,-11.01604 -75.18407,-75.18401 q 4.4064,-5.78354 6.60959,-13.6324 2.20321,-7.84886 2.20321,-15.00928 0,-20.65485 -15.28468,-34.975735 Q 117.66811,80.250673 98.114684,79.975256 l 27.815406,28.366314 q 2.47861,2.47856 2.47861,6.05878 0,3.58023 -2.47861,6.05877 l -36.352786,34.1496 q -2.478585,2.47855 -6.058775,2.47855 -3.58021,0 -6.058795,-2.47855 L 50.74599,128.17038 q 0.82625,21.20563 15.055536,34.97564 14.229327,13.77001 33.414763,13.77001 6.885011,0 14.596231,-2.20313 7.71119,-2.20333 13.49457,-6.60958 z m -70.77767,-82.34463 z"
       id="path411"
       style="opacity:0.18911917;stroke-width:0.2754" /><rect
       style="display:none;opacity:0.510363;fill:#cbad00;fill-opacity:1;stroke:#000000;stroke-width:1.84766;stroke-linecap:square;stroke-dasharray:none;stroke-dashoffset:0.8406;stroke-opacity:1;stop-color:#000000"
       id="rect401"
       width="47.184929"
       height="111.39464"
       x="101.35062"
       y="89.899216"
       rx="2.0765743"
       ry="2.7401226" /><rect
       style="opacity:0.502591;fill:#e7e500;fill-opacity:1;stroke:#000000;stroke-width:2.422;stroke-linecap:square;stroke-dasharray:none;stroke-dashoffset:0.8406;stroke-opacity:1;stop-color:#000000"
       id="rect401-5"
       width="52.336262"
       height="172.5761"
       x="-53.54726"
       y="282.76709"
       rx="2.3032808"
       ry="4.2450843"
       transform="rotate(-90)" /><rect
       style="opacity:0.549223;fill:#e79600;fill-opacity:1;stroke:#000000;stroke-width:2.50494;stroke-linecap:square;stroke-dasharray:none;stroke-dashoffset:0.8406;stroke-opacity:1;stop-color:#000000"
       id="rect401-5-5"
       width="52.253319"
       height="184.89136"
       x="-253.55486"
       y="31.906805"
       rx="2.2996306"
       ry="4.5480194"
       transform="rotate(-90)" /><text
       xml:space="preserve"
       style="font-style:normal;font-variant:normal;font-weight:600;font-stretch:normal;font-size:49.2169px;line-height:1.25;font-family:'Segoe UI';-inkscape-font-specification:'Segoe UI, Semi-Bold';font-variant-ligatures:normal;font-variant-caps:normal;font-variant-numeric:normal;font-variant-east-asian:normal;stroke-width:0.769015"
       x="288.70587"
       y="41.07719"
       id="text481"><tspan
         sodipodi:role="line"
         id="tspan479"
         style="font-style:normal;font-variant:normal;font-weight:600;font-stretch:normal;font-size:49.2169px;font-family:'Segoe UI';-inkscape-font-specification:'Segoe UI, Semi-Bold';font-variant-ligatures:normal;font-variant-caps:normal;font-variant-numeric:normal;font-variant-east-asian:normal;stroke-width:0.769015"
         x="288.70587"
         y="41.07719">(1.1.5.0)</tspan></text><text
       xml:space="preserve"
       style="font-style:normal;font-variant:normal;font-weight:600;font-stretch:normal;font-size:49.2169px;line-height:1.25;font-family:'Segoe UI';-inkscape-font-specification:'Segoe UI, Semi-Bold';font-variant-ligatures:normal;font-variant-caps:normal;font-variant-numeric:normal;font-variant-east-asian:normal;stroke-width:0.769015"
       x="377.77365"
       y="361.56451"
       id="text481-0"><tspan
         sodipodi:role="line"
         id="tspan479-5"
         style="font-style:normal;font-variant:normal;font-weight:600;font-stretch:normal;font-size:49.2169px;font-family:'Segoe UI';-inkscape-font-specification:'Segoe UI, Semi-Bold';font-variant-ligatures:normal;font-variant-caps:normal;font-variant-numeric:normal;font-variant-east-asian:normal;stroke-width:0.769015"
         x="377.77365"
         y="361.56451">1.1.5.3</tspan></text><path
       d="m 125,133.25251 -22.89411,-22.8941 4.00651,-4.00643 18.8876,18.8876 18.88768,-18.8876 4.00643,4.00643 z m 0,-24.13413 -22.89411,-22.89404 4.00651,-4.006505 18.8876,18.887605 18.88768,-18.887605 4.00643,4.006505 z"
       id="path802"
       style="stroke:#000000;stroke-width:1.90784;stroke-opacity:1" /><path
       d="m 125,184.26518 -22.89411,-22.89412 4.00651,-4.00643 18.8876,18.88761 18.88768,-18.88761 4.00643,4.00643 z m 0,-24.13414 -22.89411,-22.8941 4.00651,-4.00652 18.8876,18.88768 18.88768,-18.88768 4.00643,4.00652 z"
       id="path802-8"
       style="stroke:#000000;stroke-width:1.90784;stroke-opacity:1" /><path
       d="m 311.81792,139.03631 -22.89411,-22.8941 4.00651,-4.00643 18.8876,18.8876 18.88768,-18.8876 4.00643,4.00643 z m 0,-24.13413 -22.89411,-22.894105 4.00651,-4.00651 18.8876,18.887675 18.88768,-18.887675 4.00643,4.00651 z"
       id="path802-9"
       style="stroke-width:1.90784;stroke:#000000;stroke-opacity:1" /><path
       d="m 311.81792,190.04898 -22.89411,-22.89412 4.00651,-4.00643 18.8876,18.88761 18.88768,-18.88761 4.00643,4.00643 z m 0,-24.13414 -22.89411,-22.8941 4.00651,-4.00652 18.8876,18.88768 18.88768,-18.88768 4.00643,4.00652 z"
       id="path802-8-1"
       style="stroke-width:1.90784;stroke:#000000;stroke-opacity:1" /><text
       xml:space="preserve"
       style="font-size:50.8px;line-height:1.25;font-family:sans-serif;stroke-width:0.264583"
       x="52.694336"
       y="64.860748"
       id="text359"><tspan
         sodipodi:role="line"
         id="tspan357"
         style="font-style:normal;font-variant:normal;font-weight:600;font-stretch:normal;font-size:50.8px;font-family:'Segoe UI';-inkscape-font-specification:'Segoe UI Semi-Bold';stroke-width:0.264583"
         x="52.694336"
         y="64.860748">BMAC</tspan></text><text
       xml:space="preserve"
       transform="scale(0.26458333)"
       id="text1001"
       style="font-weight:bold;font-size:64px;line-height:1.25;font-family:sans-serif;-inkscape-font-specification:'sans-serif Bold';white-space:pre;shape-inside:url(#rect1003);display:inline" /><path
       d="m 725.1026,252.41632 -71.05306,-71.604 q -6.33419,2.20334 -12.66839,3.58021 -6.33421,1.37605 -12.94383,1.37605 -26.7366,0 -45.45248,-18.6355 -18.7156,-18.63508 -18.7156,-45.25725 0,-8.5373 2.24672,-16.63078 2.24669,-8.093717 6.29066,-15.315576 l 39.93294,39.933026 25.33679,-23.68441 -41.03457,-41.034672 q 7.13698,-4.174345 15.13512,-6.493634 7.99843,-2.31908 16.26042,-2.31908 27.3106,0 46.42773,19.117424 19.11741,19.117225 19.11741,46.427702 0,6.60959 -1.37709,12.94376 -1.37708,6.33417 -3.58019,12.66855 l 71.32846,71.05295 q 3.0294,3.01752 3.0294,7.29199 0,4.2749 -3.0294,7.30427 l -20.93037,19.27793 q -2.94566,3.02938 -7.11851,3.02938 -4.17287,0 -7.20224,-3.02938 z m 7.71117,-15.69772 11.01599,-11.01604 -75.18407,-75.18401 q 4.4064,-5.78354 6.60959,-13.6324 2.20321,-7.84886 2.20321,-15.00928 0,-20.65485 -15.28468,-34.975732 -15.28467,-14.320842 -34.8381,-14.596259 l 27.81541,28.366311 q 2.47861,2.47856 2.47861,6.05878 0,3.58023 -2.47861,6.05877 l -36.35279,34.1496 q -2.47858,2.47855 -6.05877,2.47855 -3.58021,0 -6.0588,-2.47855 L 579.96702,120.5 q 0.82625,21.20563 15.05554,34.97564 14.22932,13.77001 33.41476,13.77001 6.88501,0 14.59623,-2.20313 7.71119,-2.20333 13.49457,-6.60958 z M 662.0361,154.37397 Z"
       id="path411-1"
       style="opacity:0.189119;stroke-width:0.2754" /><rect
       style="opacity:0.549223;fill:#e79600;fill-opacity:1;stroke:#000000;stroke-width:2.422;stroke-linecap:square;stroke-dasharray:none;stroke-dashoffset:0.8406;stroke-opacity:1;stop-color:#000000"
       id="rect401-5-5-6"
       width="52.336262"
       height="172.5761"
       x="-245.92596"
       y="564.55585"
       rx="2.3032808"
       ry="4.2450843"
       transform="rotate(-90)" /><text
       xml:space="preserve"
       style="font-style:normal;font-variant:normal;font-weight:600;font-stretch:normal;font-size:49.2169px;line-height:1.25;font-family:'Segoe UI';-inkscape-font-specification:'Segoe UI, Semi-Bold';font-variant-ligatures:normal;font-variant-caps:normal;font-variant-numeric:normal;font-variant-east-asian:normal;stroke-width:0.769015"
       x="591.1972"
       y="237.06064"
       id="text481-0-9"><tspan
         sodipodi:role="line"
         id="tspan479-5-7"
         style="font-style:normal;font-variant:normal;font-weight:600;font-stretch:normal;font-size:49.2169px;font-family:'Segoe UI';-inkscape-font-specification:'Segoe UI, Semi-Bold';font-variant-ligatures:normal;font-variant-caps:normal;font-variant-numeric:normal;font-variant-east-asian:normal;stroke-width:0.769015"
         x="591.1972"
         y="237.06064">1.1.5.1</tspan></text><path
       d="m 654.22103,125.58213 -22.89411,-22.8941 4.00651,-4.006427 18.8876,18.887597 18.88768,-18.887597 4.00643,4.006427 z m 0,-24.13413 -22.89411,-22.894037 4.00651,-4.006505 18.8876,18.887605 18.88768,-18.887605 4.00643,4.006505 z"
       id="path802-1"
       style="stroke:#000000;stroke-width:1.90784;stroke-opacity:1" /><path
       d="m 654.22103,176.5948 -22.89411,-22.89412 4.00651,-4.00643 18.8876,18.88761 18.88768,-18.88761 4.00643,4.00643 z m 0,-24.13414 -22.89411,-22.8941 4.00651,-4.00652 18.8876,18.88768 18.88768,-18.88768 4.00643,4.00652 z"
       id="path802-8-0"
       style="stroke:#000000;stroke-width:1.90784;stroke-opacity:1" /><text
       xml:space="preserve"
       style="font-size:50.8px;line-height:1.25;font-family:sans-serif;stroke-width:0.264583"
       x="581.91534"
       y="57.190372"
       id="text359-9"><tspan
         sodipodi:role="line"
         id="tspan357-7"
         style="font-style:normal;font-variant:normal;font-weight:600;font-stretch:normal;font-size:50.8px;font-family:'Segoe UI';-inkscape-font-specification:'Segoe UI Semi-Bold';stroke-width:0.264583"
         x="581.91534"
         y="57.190372">BMAC</tspan></text></g></svg>
