<?xml version="1.0" encoding="UTF-8" standalone="no"?>
<svg
   height="48"
   viewBox="0 96 960 960"
   width="48"
   version="1.1"
   id="svg1159"
   sodipodi:docname="check_box.svg"
   inkscape:version="1.2 (dc2aedaf03, 2022-05-15)"
   inkscape:export-filename="check_box.png"
   inkscape:export-xdpi="96"
   inkscape:export-ydpi="96"
   xmlns:inkscape="http://www.inkscape.org/namespaces/inkscape"
   xmlns:sodipodi="http://sodipodi.sourceforge.net/DTD/sodipodi-0.dtd"
   xmlns="http://www.w3.org/2000/svg"
   xmlns:svg="http://www.w3.org/2000/svg">
  <defs
     id="defs1163" />
  <sodipodi:namedview
     id="namedview1161"
     pagecolor="#ffffff"
     bordercolor="#666666"
     borderopacity="1.0"
     inkscape:showpageshadow="2"
     inkscape:pageopacity="0.0"
     inkscape:pagecheckerboard="0"
     inkscape:deskcolor="#d1d1d1"
     showgrid="false"
     inkscape:zoom="10.697917"
     inkscape:cx="40.895812"
     inkscape:cy="22.667964"
     inkscape:window-width="2560"
     inkscape:window-height="1377"
     inkscape:window-x="-8"
     inkscape:window-y="-8"
     inkscape:window-maximized="1"
     inkscape:current-layer="layer1">
    <inkscape:page
       x="0"
       y="0"
       width="960"
       height="960"
       id="page430"
       inkscape:label="GreenCheckBox"
       inkscape:export-filename=".\GreenCheckBox.png"
       inkscape:export-xdpi="96"
       inkscape:export-ydpi="96" />
    <inkscape:page
       x="970"
       y="0"
       width="960"
       height="960"
       id="page432"
       inkscape:label="YellowCheckBox"
       inkscape:export-filename="YellowCheckBox.png"
       inkscape:export-xdpi="96"
       inkscape:export-ydpi="96" />
  </sodipodi:namedview>
  <g
     inkscape:groupmode="layer"
     id="layer1"
     inkscape:label="Layer 1">
    <rect
       style="opacity:1;fill:#1fe700;fill-opacity:1;stroke:none;stroke-width:0;stroke-linecap:butt;stroke-miterlimit:0;stroke-dasharray:none;stroke-dashoffset:0.8406;paint-order:markers stroke fill;stop-color:#000000"
       id="rect1335"
       width="651.52869"
       height="655.26776"
       x="151.43135"
       y="248.36612"
       rx="28.907101"
       ry="29.997177" />
    <path
       d="M 419,735 708,446 665,403 419,649 300,530 257,573 Z M 180,936 q -24,0 -42,-18 -18,-18 -18,-42 V 276 q 0,-24 18,-42 18,-18 42,-18 h 600 q 24,0 42,18 18,18 18,42 v 600 q 0,24 -18,42 -18,18 -42,18 z m 0,-60 H 780 V 276 H 180 Z m 0,-600 v 600 z"
       id="path1157" />
  </g>
  <g
     inkscape:groupmode="layer"
     id="layer2"
     inkscape:label="Layer 2">
    <rect
       style="fill:#cdd22a;fill-opacity:1;stroke:none;stroke-width:0;stroke-linecap:butt;stroke-miterlimit:0;stroke-dasharray:none;stroke-dashoffset:0.8406;paint-order:markers stroke fill;stop-color:#000000"
       id="rect1335-1"
       width="651.52869"
       height="655.26776"
       x="1124.2356"
       y="248.36615"
       rx="28.907101"
       ry="29.997177" />
    <path
       d="m 1391.8043,735.00002 289,-289 -43,-43 -246,246 -119,-119 -43,43 z m -239,201.00002 q -24,0 -42,-18 -18,-18 -18,-42 V 276.00002 q 0,-24 18,-42 18,-18 42,-18 h 600 q 24,0 42,18 18,18 18,42 v 600.00002 q 0,24 -18,42 -18,18 -42,18 z m 0,-60 h 600 V 276.00002 h -600 z m 0,-600.00002 v 600.00002 z"
       id="path1157-6" />
  </g>
</svg>
